<svg width="665" height="591" viewBox="0 0 665 591" fill="none" xmlns="http://www.w3.org/2000/svg">
<path d="M394.628 470.572C354.666 479.953 344.082 427.522 305.382 427.887C254.746 428.366 198.881 482.012 152.305 472.861C105.032 463.572 81.0713 422.317 71.3372 381.9C60.8091 338.187 64.6244 286.319 96.2947 240.303C127.593 194.827 183.527 160.724 238.89 138.45C287.946 118.713 335.241 129.351 385.015 124.143C433.134 119.109 488.35 92.3206 526.611 108.346C564.939 124.399 578.883 165.737 579.04 205.409C579.179 240.497 547.808 275.59 527.413 311.004C511.829 338.063 494.683 363.123 473.66 388.387C449.296 417.666 432.75 461.624 394.628 470.572Z" fill="#484C9A"/>
</svg>
